<mxfile host="65bd71144e">
    <diagram id="vEsDR_9fABrcw1KfVioN" name="第 1 页">
        <mxGraphModel dx="1861" dy="661" grid="0" gridSize="10" guides="1" tooltips="1" connect="1" arrows="1" fold="1" page="1" pageScale="1" pageWidth="827" pageHeight="1169" background="#ffffff" math="0" shadow="0">
            <root>
                <mxCell id="0"/>
                <mxCell id="1" parent="0"/>
                <mxCell id="8" value="管理员" style="ellipse;whiteSpace=wrap;html=1;aspect=fixed;fontSize=15;fontColor=#0a0a0a;fillColor=#FFFFFF;strokeColor=#0d0d0d;" parent="1" vertex="1">
                    <mxGeometry x="258.5" y="405" width="80" height="80" as="geometry"/>
                </mxCell>
                <mxCell id="19" value="" style="edgeStyle=none;html=1;strokeColor=#0a0a0a;fontSize=15;fontColor=#0a0a0a;exitX=0.5;exitY=1;exitDx=0;exitDy=0;" parent="1" edge="1" source="8">
                    <mxGeometry relative="1" as="geometry">
                        <mxPoint x="298" y="544" as="sourcePoint"/>
                        <mxPoint x="299" y="557" as="targetPoint"/>
                    </mxGeometry>
                </mxCell>
                <mxCell id="25" value="登录" style="rhombus;whiteSpace=wrap;html=1;fontSize=15;fillColor=#ffffff;strokeColor=#030303;fontColor=#0d0d0d;rounded=0;" parent="1" vertex="1">
                    <mxGeometry x="219.5" y="717" width="158" height="80" as="geometry"/>
                </mxCell>
                <mxCell id="33" value="&lt;font style=&quot;font-size: 16px;&quot;&gt;登入系统&lt;/font&gt;" style="rounded=0;whiteSpace=wrap;html=1;fillColor=#FFFFFF;strokeColor=#030303;fontColor=#000000;" vertex="1" parent="1">
                    <mxGeometry x="216" y="558" width="165" height="60" as="geometry"/>
                </mxCell>
                <mxCell id="35" value="" style="edgeStyle=none;html=1;strokeColor=#0a0a0a;fontSize=15;fontColor=#0a0a0a;exitX=0.5;exitY=1;exitDx=0;exitDy=0;entryX=0.5;entryY=0;entryDx=0;entryDy=0;" edge="1" parent="1" target="25">
                    <mxGeometry relative="1" as="geometry">
                        <mxPoint x="298" y="618" as="sourcePoint"/>
                        <mxPoint x="298.5" y="690" as="targetPoint"/>
                    </mxGeometry>
                </mxCell>
                <mxCell id="36" value="" style="edgeStyle=elbowEdgeStyle;elbow=horizontal;endArrow=classic;html=1;curved=0;rounded=0;endSize=8;startSize=8;fontSize=16;fontColor=#000000;strokeColor=#030303;entryX=1;entryY=0.5;entryDx=0;entryDy=0;" edge="1" parent="1" target="33">
                    <mxGeometry width="50" height="50" relative="1" as="geometry">
                        <mxPoint x="377.5" y="757" as="sourcePoint"/>
                        <mxPoint x="427.5" y="707" as="targetPoint"/>
                        <Array as="points">
                            <mxPoint x="579.5" y="740"/>
                        </Array>
                    </mxGeometry>
                </mxCell>
                <mxCell id="37" value="" style="edgeStyle=none;html=1;strokeColor=#0a0a0a;fontSize=15;fontColor=#0a0a0a;exitX=0.5;exitY=1;exitDx=0;exitDy=0;entryX=0.5;entryY=0;entryDx=0;entryDy=0;" edge="1" parent="1">
                    <mxGeometry relative="1" as="geometry">
                        <mxPoint x="298" y="795" as="sourcePoint"/>
                        <mxPoint x="298.5" y="894" as="targetPoint"/>
                    </mxGeometry>
                </mxCell>
                <mxCell id="38" value="登录系统" style="text;html=1;align=center;verticalAlign=middle;resizable=0;points=[];autosize=1;strokeColor=none;fillColor=none;fontSize=16;fontColor=#000000;" vertex="1" parent="1">
                    <mxGeometry x="293" y="832" width="82" height="31" as="geometry"/>
                </mxCell>
                <mxCell id="39" value="重新登录" style="text;html=1;align=center;verticalAlign=middle;resizable=0;points=[];autosize=1;strokeColor=none;fillColor=none;fontSize=16;fontColor=#000000;" vertex="1" parent="1">
                    <mxGeometry x="574" y="666" width="82" height="31" as="geometry"/>
                </mxCell>
                <mxCell id="42" value="" style="edgeStyle=none;html=1;strokeColor=#0a0a0a;fontSize=15;fontColor=#0a0a0a;" edge="1" parent="1" source="43" target="45">
                    <mxGeometry relative="1" as="geometry"/>
                </mxCell>
                <mxCell id="43" value="进行管理员操作" style="whiteSpace=wrap;html=1;fontSize=15;fillColor=#ffffff;strokeColor=#030303;fontColor=#0d0d0d;rounded=0;" vertex="1" parent="1">
                    <mxGeometry x="232" y="892" width="144.5" height="60" as="geometry"/>
                </mxCell>
                <mxCell id="44" value="" style="edgeStyle=none;html=1;strokeColor=#0a0a0a;fontSize=15;fontColor=#0a0a0a;" edge="1" parent="1" source="45" target="48">
                    <mxGeometry relative="1" as="geometry"/>
                </mxCell>
                <mxCell id="45" value="登录态失效" style="rhombus;whiteSpace=wrap;html=1;fontSize=15;fillColor=#ffffff;strokeColor=#030303;fontColor=#0d0d0d;rounded=0;" vertex="1" parent="1">
                    <mxGeometry x="225.25" y="1042" width="158" height="80" as="geometry"/>
                </mxCell>
                <mxCell id="48" value="执行管理员操作" style="rounded=0;whiteSpace=wrap;html=1;fontSize=15;fillColor=#ffffff;strokeColor=#030303;fontColor=#0d0d0d;" vertex="1" parent="1">
                    <mxGeometry x="244.25" y="1199" width="120" height="60" as="geometry"/>
                </mxCell>
                <mxCell id="51" value="" style="edgeStyle=elbowEdgeStyle;elbow=horizontal;endArrow=classic;html=1;curved=0;rounded=0;endSize=8;startSize=8;fontSize=16;fontColor=#000000;strokeColor=#030303;exitX=0;exitY=0.5;exitDx=0;exitDy=0;entryX=0;entryY=0.5;entryDx=0;entryDy=0;" edge="1" parent="1" source="45" target="33">
                    <mxGeometry width="50" height="50" relative="1" as="geometry">
                        <mxPoint x="-86" y="1097" as="sourcePoint"/>
                        <mxPoint x="184" y="781" as="targetPoint"/>
                        <Array as="points">
                            <mxPoint x="71" y="834"/>
                        </Array>
                    </mxGeometry>
                </mxCell>
                <mxCell id="52" value="重新登录" style="text;html=1;align=center;verticalAlign=middle;resizable=0;points=[];autosize=1;strokeColor=none;fillColor=none;fontSize=16;fontColor=#000000;" vertex="1" parent="1">
                    <mxGeometry x="-14" y="778" width="82" height="31" as="geometry"/>
                </mxCell>
            </root>
        </mxGraphModel>
    </diagram>
</mxfile>